<mxfile host="app.diagrams.net" modified="2023-07-18T20:52:03.859Z" agent="Mozilla/5.0 (Windows NT 10.0; Win64; x64) AppleWebKit/537.36 (KHTML, like Gecko) Chrome/114.0.0.0 Safari/537.36" etag="FhAfA6mIhFWsEi_kXdTa" version="21.6.2" type="device">
  <diagram name="Página-1" id="LPo4ANtjvLk1acjnPov4">
    <mxGraphModel dx="1706" dy="944" grid="1" gridSize="10" guides="1" tooltips="1" connect="1" arrows="1" fold="1" page="1" pageScale="1" pageWidth="827" pageHeight="1169" math="0" shadow="0">
      <root>
        <mxCell id="0" />
        <mxCell id="1" parent="0" />
        <mxCell id="hkGQG9iPx8PYGjkIgS5F-35" value="" style="rounded=0;whiteSpace=wrap;html=1;" vertex="1" parent="1">
          <mxGeometry x="10" width="810" height="970" as="geometry" />
        </mxCell>
        <mxCell id="hkGQG9iPx8PYGjkIgS5F-5" value="&lt;b&gt;INÍCIO&lt;/b&gt;" style="ellipse;whiteSpace=wrap;html=1;" vertex="1" parent="1">
          <mxGeometry x="354" y="40" width="116" height="50" as="geometry" />
        </mxCell>
        <mxCell id="hkGQG9iPx8PYGjkIgS5F-7" value="Informe seu nome:" style="shape=document;whiteSpace=wrap;html=1;boundedLbl=1;" vertex="1" parent="1">
          <mxGeometry x="357" y="130" width="110" height="50" as="geometry" />
        </mxCell>
        <mxCell id="hkGQG9iPx8PYGjkIgS5F-17" style="edgeStyle=orthogonalEdgeStyle;rounded=0;orthogonalLoop=1;jettySize=auto;html=1;entryX=0.5;entryY=0;entryDx=0;entryDy=0;" edge="1" parent="1" source="hkGQG9iPx8PYGjkIgS5F-8" target="hkGQG9iPx8PYGjkIgS5F-9">
          <mxGeometry relative="1" as="geometry" />
        </mxCell>
        <mxCell id="hkGQG9iPx8PYGjkIgS5F-8" value="nome" style="shape=manualInput;whiteSpace=wrap;html=1;" vertex="1" parent="1">
          <mxGeometry x="359" y="200" width="110" height="50" as="geometry" />
        </mxCell>
        <mxCell id="hkGQG9iPx8PYGjkIgS5F-9" value="Informe a nota 1:" style="shape=document;whiteSpace=wrap;html=1;boundedLbl=1;" vertex="1" parent="1">
          <mxGeometry x="358.5" y="290" width="111" height="50" as="geometry" />
        </mxCell>
        <mxCell id="hkGQG9iPx8PYGjkIgS5F-10" value="nota1" style="shape=manualInput;whiteSpace=wrap;html=1;" vertex="1" parent="1">
          <mxGeometry x="357" y="370" width="110" height="50" as="geometry" />
        </mxCell>
        <mxCell id="hkGQG9iPx8PYGjkIgS5F-11" value="Informe a nota 2:" style="shape=document;whiteSpace=wrap;html=1;boundedLbl=1;" vertex="1" parent="1">
          <mxGeometry x="360" y="460" width="110" height="50" as="geometry" />
        </mxCell>
        <mxCell id="hkGQG9iPx8PYGjkIgS5F-12" value="nota2" style="shape=manualInput;whiteSpace=wrap;html=1;" vertex="1" parent="1">
          <mxGeometry x="360" y="540" width="110" height="50" as="geometry" />
        </mxCell>
        <mxCell id="hkGQG9iPx8PYGjkIgS5F-13" value="média = (nota1 + nota2) / 2" style="rounded=0;whiteSpace=wrap;html=1;" vertex="1" parent="1">
          <mxGeometry x="359.5" y="630" width="110" height="50" as="geometry" />
        </mxCell>
        <mxCell id="hkGQG9iPx8PYGjkIgS5F-14" value="" style="endArrow=classic;html=1;rounded=0;" edge="1" parent="1">
          <mxGeometry width="50" height="50" relative="1" as="geometry">
            <mxPoint x="411.5" y="90" as="sourcePoint" />
            <mxPoint x="412" y="130" as="targetPoint" />
            <Array as="points">
              <mxPoint x="411.5" y="130" />
              <mxPoint x="412" y="120" />
            </Array>
          </mxGeometry>
        </mxCell>
        <mxCell id="hkGQG9iPx8PYGjkIgS5F-15" value="" style="endArrow=classic;html=1;rounded=0;" edge="1" parent="1">
          <mxGeometry width="50" height="50" relative="1" as="geometry">
            <mxPoint x="413" y="170" as="sourcePoint" />
            <mxPoint x="413.5" y="210" as="targetPoint" />
            <Array as="points">
              <mxPoint x="413" y="210" />
              <mxPoint x="413.5" y="200" />
            </Array>
          </mxGeometry>
        </mxCell>
        <mxCell id="hkGQG9iPx8PYGjkIgS5F-20" style="edgeStyle=orthogonalEdgeStyle;rounded=0;orthogonalLoop=1;jettySize=auto;html=1;entryX=0.5;entryY=0;entryDx=0;entryDy=0;" edge="1" parent="1">
          <mxGeometry relative="1" as="geometry">
            <mxPoint x="414" y="340" as="sourcePoint" />
            <mxPoint x="414" y="380" as="targetPoint" />
          </mxGeometry>
        </mxCell>
        <mxCell id="hkGQG9iPx8PYGjkIgS5F-21" style="edgeStyle=orthogonalEdgeStyle;rounded=0;orthogonalLoop=1;jettySize=auto;html=1;entryX=0.5;entryY=0;entryDx=0;entryDy=0;" edge="1" parent="1">
          <mxGeometry relative="1" as="geometry">
            <mxPoint x="414" y="420" as="sourcePoint" />
            <mxPoint x="414" y="460" as="targetPoint" />
          </mxGeometry>
        </mxCell>
        <mxCell id="hkGQG9iPx8PYGjkIgS5F-22" style="edgeStyle=orthogonalEdgeStyle;rounded=0;orthogonalLoop=1;jettySize=auto;html=1;entryX=0.5;entryY=0;entryDx=0;entryDy=0;" edge="1" parent="1">
          <mxGeometry relative="1" as="geometry">
            <mxPoint x="413" y="510" as="sourcePoint" />
            <mxPoint x="413" y="550" as="targetPoint" />
          </mxGeometry>
        </mxCell>
        <mxCell id="hkGQG9iPx8PYGjkIgS5F-23" style="edgeStyle=orthogonalEdgeStyle;rounded=0;orthogonalLoop=1;jettySize=auto;html=1;entryX=0.5;entryY=0;entryDx=0;entryDy=0;" edge="1" parent="1">
          <mxGeometry relative="1" as="geometry">
            <mxPoint x="414" y="590" as="sourcePoint" />
            <mxPoint x="414" y="630" as="targetPoint" />
          </mxGeometry>
        </mxCell>
        <mxCell id="hkGQG9iPx8PYGjkIgS5F-24" value="media" style="rhombus;whiteSpace=wrap;html=1;" vertex="1" parent="1">
          <mxGeometry x="357" y="720" width="110" height="60" as="geometry" />
        </mxCell>
        <mxCell id="hkGQG9iPx8PYGjkIgS5F-25" style="edgeStyle=orthogonalEdgeStyle;rounded=0;orthogonalLoop=1;jettySize=auto;html=1;entryX=0.5;entryY=0;entryDx=0;entryDy=0;" edge="1" parent="1">
          <mxGeometry relative="1" as="geometry">
            <mxPoint x="413" y="680" as="sourcePoint" />
            <mxPoint x="413" y="720" as="targetPoint" />
          </mxGeometry>
        </mxCell>
        <mxCell id="hkGQG9iPx8PYGjkIgS5F-26" style="edgeStyle=orthogonalEdgeStyle;rounded=0;orthogonalLoop=1;jettySize=auto;html=1;exitX=1;exitY=0.5;exitDx=0;exitDy=0;entryX=0.5;entryY=0;entryDx=0;entryDy=0;" edge="1" parent="1" source="hkGQG9iPx8PYGjkIgS5F-24" target="hkGQG9iPx8PYGjkIgS5F-28">
          <mxGeometry relative="1" as="geometry">
            <mxPoint x="500" y="730" as="sourcePoint" />
            <mxPoint x="530" y="750" as="targetPoint" />
          </mxGeometry>
        </mxCell>
        <mxCell id="hkGQG9iPx8PYGjkIgS5F-27" style="edgeStyle=orthogonalEdgeStyle;rounded=0;orthogonalLoop=1;jettySize=auto;html=1;exitX=0;exitY=0.5;exitDx=0;exitDy=0;entryX=0.5;entryY=0;entryDx=0;entryDy=0;" edge="1" parent="1" source="hkGQG9iPx8PYGjkIgS5F-24" target="hkGQG9iPx8PYGjkIgS5F-29">
          <mxGeometry relative="1" as="geometry">
            <mxPoint x="320" y="760" as="sourcePoint" />
            <mxPoint x="320" y="750" as="targetPoint" />
          </mxGeometry>
        </mxCell>
        <mxCell id="hkGQG9iPx8PYGjkIgS5F-34" style="edgeStyle=orthogonalEdgeStyle;rounded=0;orthogonalLoop=1;jettySize=auto;html=1;entryX=1;entryY=0.5;entryDx=0;entryDy=0;" edge="1" parent="1" source="hkGQG9iPx8PYGjkIgS5F-28" target="hkGQG9iPx8PYGjkIgS5F-32">
          <mxGeometry relative="1" as="geometry">
            <mxPoint x="545" y="920" as="targetPoint" />
            <Array as="points">
              <mxPoint x="545" y="880" />
              <mxPoint x="546" y="880" />
              <mxPoint x="546" y="915" />
            </Array>
          </mxGeometry>
        </mxCell>
        <mxCell id="hkGQG9iPx8PYGjkIgS5F-28" value="O aluno: nome, com média: media, está &lt;b&gt;APROVADO&lt;/b&gt;" style="shape=document;whiteSpace=wrap;html=1;boundedLbl=1;" vertex="1" parent="1">
          <mxGeometry x="490" y="780" width="110" height="60" as="geometry" />
        </mxCell>
        <mxCell id="hkGQG9iPx8PYGjkIgS5F-33" style="edgeStyle=orthogonalEdgeStyle;rounded=0;orthogonalLoop=1;jettySize=auto;html=1;entryX=0;entryY=0.5;entryDx=0;entryDy=0;" edge="1" parent="1" source="hkGQG9iPx8PYGjkIgS5F-29" target="hkGQG9iPx8PYGjkIgS5F-32">
          <mxGeometry relative="1" as="geometry">
            <mxPoint x="275" y="920" as="targetPoint" />
            <Array as="points">
              <mxPoint x="275" y="880" />
              <mxPoint x="276" y="880" />
              <mxPoint x="276" y="915" />
            </Array>
          </mxGeometry>
        </mxCell>
        <mxCell id="hkGQG9iPx8PYGjkIgS5F-29" value="O aluno: nome, com média: media, está &lt;b&gt;REPROVADO&lt;/b&gt;" style="shape=document;whiteSpace=wrap;html=1;boundedLbl=1;" vertex="1" parent="1">
          <mxGeometry x="220" y="780" width="110" height="60" as="geometry" />
        </mxCell>
        <mxCell id="hkGQG9iPx8PYGjkIgS5F-30" value="&lt;font color=&quot;#66ff66&quot;&gt;&lt;b&gt;VERDADEIRO&lt;/b&gt;&lt;/font&gt;" style="text;html=1;strokeColor=none;fillColor=none;align=center;verticalAlign=middle;whiteSpace=wrap;rounded=0;" vertex="1" parent="1">
          <mxGeometry x="515" y="710" width="60" height="30" as="geometry" />
        </mxCell>
        <mxCell id="hkGQG9iPx8PYGjkIgS5F-31" value="&lt;b style=&quot;&quot;&gt;&lt;font color=&quot;#ff3333&quot;&gt;FALSO&lt;/font&gt;&lt;/b&gt;" style="text;html=1;strokeColor=none;fillColor=none;align=center;verticalAlign=middle;whiteSpace=wrap;rounded=0;" vertex="1" parent="1">
          <mxGeometry x="245" y="710" width="60" height="30" as="geometry" />
        </mxCell>
        <mxCell id="hkGQG9iPx8PYGjkIgS5F-32" value="&lt;b&gt;FIM&lt;/b&gt;" style="ellipse;whiteSpace=wrap;html=1;" vertex="1" parent="1">
          <mxGeometry x="356" y="890" width="116" height="50" as="geometry" />
        </mxCell>
      </root>
    </mxGraphModel>
  </diagram>
</mxfile>
